<svg xmlns="http://www.w3.org/2000/svg" width="67" height="52" fill="none"><g clip-path="url(#a)"><path fill="#FCB62A" d="M13.281 40.828c2.083-13.677 13.447-24.803 25.021-24.785.068.349.22.79.11 1.128-1.866 5.753.622 10.219 4.654 14.175 3.103 3.123 6.687 5.671 10.971 6.968 1.226.334 2.452.668 3.783.75 4.874.383 7.437-2.22 7.194-6.98-.16-3.203-1.6-5.879-3.587-8.33-3.39-4.262-7.825-7.466-13.032-9.683a203.511 203.511 0 0 1-3.563-1.425c5.053-5.472 11.895-6.693 18.44-8.881-1.154-.07-2.296-.313-3.46-.212-6.022.926-11.653 2.739-16.174 6.776-1.316 1.128-2.521 1.917-4.473 1.798C31.62 11.752 25.3 14.644 20 19.756a38.975 38.975 0 0 0-9.095 13.334c-.522 1.262-1.045 2.524-1.97 4.538-2.43-3.944-4.536-7.351-6.643-10.759-.271.07-.548.226-.82.295-.13.683-.449 1.526-.22 2.144 1.064 2.998 2.127 5.997 3.373 8.92 1.173 2.66 2.529 5.245 3.702 7.905 1.178 2.574 2.56 3.262 4.372 1.302 3.143-3.345 5.947-6.97 8.84-10.59.385-.493.088-1.46.047-2.24-.897.118-2.045-.038-2.61.445-1.978 1.777-3.607 3.662-5.695 5.778Zm28.67-24.735c8.603 1.993 15.103 6.359 18.993 14.102.787 1.688 1.37 3.794-.305 4.986-1.117.794-3.256.836-4.754.572-5.713-1.212-9.96-4.578-13.428-9.017-2.389-3.166-2.987-6.48-.507-10.643Z"/></g><defs><clipPath id="a"><path fill="#fff" d="M66.809 3.904 2.929 0 0 47.91l63.88 3.905z"/></clipPath></defs></svg>