<svg xmlns="http://www.w3.org/2000/svg" width="53" height="54" fill="none"><path fill="#FCB62A" d="M24.946 26.038c2.745 3.753 6.712 1.969 12.212 3.125 8.032 1.546 11.19-2.381 9.714-6.197-1.429-3.66-6.451-3.767-8.907-7.098-2.456-3.33-1.14-8.554-4.14-11.024-3-2.47-7.507-.342-8.318 8.15-.493 5.819-3.159 9.244-.561 13.044ZM29.212 37.086c1.161-4.11 4.3-6.984 6.814-6.09 2.515.895 3.734 4.923 2.473 9.235-1.161 4.11-4.3 6.984-6.814 6.09-2.515-.895-3.587-4.97-2.473-9.235ZM16.035 18.739c4.153.027 7.412-2.372 7.344-5.233-.068-2.86-3.474-5.16-7.58-5.033-4.153-.028-7.412 2.372-7.344 5.232.022 2.706 3.427 5.006 7.58 5.034ZM16.36 34.001c3.108-3.345 7.362-4.538 9.455-2.522 2.093 2.016 1.298 6.468-1.81 9.813-3.109 3.345-7.363 4.538-9.456 2.522-1.943-2.064-1.25-6.315 1.811-9.813ZM15.142 31.803c3.984-2.108 6.317-5.854 4.992-8.596-1.278-2.59-5.546-3.057-9.68-.9-3.983 2.107-6.316 5.853-4.992 8.595 1.279 2.59 5.697 3.009 9.68.9Z"/></svg>