<svg xmlns="http://www.w3.org/2000/svg" width="55" height="56" fill="none"><path fill="#D9A6FF" d="M27.283 28.017c-4.524 1.003-4.932 5.272-8.505 9.833-5.127 6.671-3.296 11.326.549 11.63 3.845.303 6.323-4.388 10.434-4.926 4.012-.79 7.793 2.76 11.28 1.017 3.538-1.618 3.905-6.749-2.924-11.228-4.579-2.926-6.29-6.9-10.834-6.326ZM14.709 26.411c2.964 3.246 3.925 7.48 2.167 9.446-1.88 2.017-5.788 1.018-8.752-2.227-2.964-3.246-3.926-7.48-2.167-9.446 1.879-2.017 5.788-1.018 8.752 2.227ZM37.406 22.68c-1.93 3.942-1.463 8.08.915 9.333 2.378 1.253 5.914-.816 7.845-4.758 1.93-3.94 1.463-8.08-.915-9.332-2.502-1.2-6.039.868-7.845 4.757ZM23.885 16.689c1.573 4.372.526 8.769-2.163 9.735-2.688.966-6.139-1.864-7.712-6.237-1.573-4.373-.526-8.77 2.162-9.735 2.689-.966 6.14 1.864 7.713 6.237ZM26.483 15.716c-.105 4.412 2.1 7.863 4.793 7.87 2.814-.044 5.12-3.54 5.274-7.83.105-4.412-2.101-7.863-4.794-7.87-2.74-.128-5.168 3.418-5.273 7.83Z"/></svg>