<svg xmlns="http://www.w3.org/2000/svg" width="60" height="57" fill="none"><path fill="#839AA9" d="M30.263 26.532c2.447-3.727 6.603-2.755 12.092-4.487 7.995-2.487 11.69.656 10.603 4.224-.99 3.491-6.27 4.305-8.142 7.733-2.128 3.326-.12 7.79-2.967 10.472-2.747 2.604-7.588 1.414-9.457-6.178-1.212-5.087-4.421-7.857-2.13-11.764ZM32.934 15.838c1.71 3.733 5.25 5.726 7.81 4.644 2.559-1.082 3.227-5.14 1.418-8.795-1.71-3.734-5.15-5.805-7.81-4.645-2.659 1.16-3.128 5.062-1.418 8.796ZM21.997 34.904c4.259-.746 7.788.807 7.98 3.391.191 2.584-3.143 5.194-7.375 5.774-4.26.745-7.79-.807-7.98-3.391-.192-2.584 3.142-5.194 7.375-5.774ZM20.834 21.111c3.517 2.675 8.01 3.036 10.088.788 2.079-2.247.805-6.37-2.712-9.045-3.518-2.675-8.01-3.036-10.089-.788-2.078 2.247-.804 6.37 2.713 9.045ZM19.645 22.078c4.21 1.25 6.67 4.309 5.6 6.906-1.07 2.598-5.259 3.677-9.468 2.427s-6.67-4.309-5.6-6.906c1.07-2.598 5.259-3.678 9.468-2.427Z"/></svg>