<svg xmlns="http://www.w3.org/2000/svg" width="59" height="54" fill="none"><path fill="#839AA9" d="M27.545 26.649c-4.583.878-5.025 4.797-8.64 8.971-5.23 6.092-3.332 10.336.627 10.58 3.848.306 6.47-3.992 10.556-4.473 4.07-.735 7.875 2.487 11.543.916 3.556-1.511 4.012-6.097-2.983-10.239-4.702-2.741-6.391-6.44-11.103-5.755ZM16.567 25.334c3.17 2.722 3.966 6.448 2.004 8.303-1.962 1.855-6.272 1.084-9.33-1.697-3.169-2.722-4.077-6.388-2.003-8.303 2.074-1.916 6.16-1.024 9.329 1.697ZM38.71 21.926c-2.205 3.438-1.848 7.009.684 8.034 2.533 1.025 6.296-.992 8.325-4.462 2.203-3.438 1.847-7.01-.686-8.034-2.532-1.025-6.295.992-8.324 4.462ZM25.752 15.866c1.49 3.933.318 7.94-2.652 8.992-2.97 1.05-6.679-1.422-8.168-5.356-1.49-3.933-.318-7.94 2.651-8.991 2.97-1.051 6.68 1.421 8.169 5.355ZM26.743 15.062c-.18 4.058 2.055 7.205 5.032 7.143 2.977-.062 5.493-3.328 5.673-7.386.18-4.058-2.055-7.205-5.032-7.143-2.977.062-5.493 3.328-5.673 7.386Z"/></svg>