<svg xmlns="http://www.w3.org/2000/svg" width="60" height="57" fill="none"><path fill="#839AA9" d="M30.266 26.892c-2.446-3.723-6.868-2.95-12.352-4.682-7.988-2.486-11.258.947-10.17 4.511.99 3.487 6.525 4.397 8.397 7.821 2.126 3.322-.55 7.849 2.294 10.528 2.745 2.6 7.44 1.146 9.304-6.436 1.21-5.08 4.818-7.839 2.527-11.742ZM27.85 16.511c-1.707 3.728-5.466 6.025-8.023 4.944-2.557-1.081-3.988-5.542-2.182-9.192 1.707-3.728 5.367-6.103 8.023-4.944 2.657 1.159 3.89 5.464 2.182 9.192ZM38.344 36.038c-4.255-.745-7.305.282-7.495 2.863-.19 2.58 2.55 4.726 6.777 5.306 4.256.746 7.306-.282 7.496-2.863.19-2.58-2.55-4.725-6.778-5.306ZM39.63 21.903c-3.512 2.67-8.43 2.75-10.507.504s-.76-6.4 2.752-9.072c3.512-2.67 8.43-2.75 10.508-.504 2.076 2.246.76 6.4-2.752 9.072ZM41.087 22.493c-4.204 1.248-7.474 4.864-6.404 7.459 1.07 2.594 5.135 3.57 9.339 2.323 4.204-1.248 7.474-4.864 6.404-7.459-1.07-2.595-5.135-3.57-9.339-2.323Z"/></svg>