<svg aria-hidden="true" style="position: absolute; width: 0; height: 0; overflow: hidden;" version="1.1" xmlns="http://www.w3.org/2000/svg" xmlns:xlink="http://www.w3.org/1999/xlink">
<defs>
<symbol id="icon-arrow" viewBox="0 0 32 32">
<path d="M6.343 23.082c0.995-6.532 6.422-11.846 11.95-11.838 0.032 0.167 0.105 0.377 0.053 0.539-0.891 2.748 0.297 4.881 2.223 6.77 1.482 1.492 3.194 2.709 5.24 3.328 0.586 0.16 1.171 0.319 1.807 0.358 2.328 0.183 3.552-1.060 3.436-3.334-0.076-1.53-0.764-2.808-1.713-3.979-1.619-2.036-3.737-3.566-6.224-4.625-1.221-0.455-1.783-0.684-2.342-0.919l0.64 0.238c2.413-2.614 5.681-3.197 8.807-4.242-0.551-0.033-1.097-0.149-1.653-0.101-2.876 0.442-5.566 1.308-7.725 3.236-0.629 0.539-1.204 0.916-2.136 0.859-3.604-0.179-6.622 1.202-9.153 3.644-1.833 1.757-3.304 3.877-4.298 6.246l-0.046 0.123c-0.249 0.603-0.499 1.206-0.941 2.167-1.161-1.884-2.166-3.511-3.173-5.139-0.129 0.033-0.262 0.108-0.392 0.141-0.062 0.326-0.214 0.729-0.105 1.024 0.508 1.432 1.016 2.864 1.611 4.26 0.56 1.27 1.208 2.505 1.768 3.776 0.563 1.229 1.223 1.558 2.088 0.622 1.501-1.598 2.84-3.329 4.222-5.058 0.184-0.235 0.042-0.697 0.022-1.070-0.428 0.056-0.977-0.018-1.247 0.213-0.945 0.849-1.723 1.749-2.72 2.76zM20.036 11.268c4.109 0.952 7.213 3.037 9.071 6.735 0.376 0.806 0.654 1.812-0.146 2.381-0.534 0.379-1.555 0.399-2.271 0.273-2.729-0.579-4.757-2.186-6.413-4.307-1.141-1.512-1.427-3.095-0.242-5.083z"></path>
</symbol>
<symbol id="icon-bathing" viewBox="0 0 32 32">
<path d="M22.772 14.919c-0.266-0.621-0.695-1.13-1.234-1.485l-0.012-0.008c-0.399-0.257-1.946-0.463-1.995 0.978 0 0-0.649 0.103-0.599 0.567 0 0-0.399 1.39 1.496 1.235 0 0 0.349 2.625 0.648 3.192 0 0 0.15 0.515 0.2 1.030h0.798l0.050-1.030s0.449 0.309 0.798 1.030h1.147c-0.050-0.412-0.1-0.772-0.2-1.030 0 0 1.696 0 2.295-0.772 0 0 0.499 0.978 1.097 1.029v0.824h0.798c0.050-0.154 0.050-0.309 0.1-0.566 0 0 0.299 0.155 0.449 0.567h0.698c-0.1-0.361-0.998-3.707-1.297-3.964 0 0 0.449-0.051 0.598 0.515 0 0 0.249 1.184 0.748 1.133 0 0 0.349-0.772-0.249-1.75 0 0-0.25-0.721-1.547-0.618l-3.741-0.103c-0.455-0.093-0.83-0.378-1.044-0.764l-0.004-0.008zM18.233 10.955c0.299-0.412 0.249-1.030-0.15-1.39-0.399-0.309-0.997-0.257-1.347 0.154-0.948 1.236-2.643 1.441-3.841 0.927l-0.648 1.853c2.045 0.823 4.539 0.412 5.986-1.544zM9.753 7.712c1.35 0 2.444-1.129 2.444-2.522s-1.094-2.523-2.444-2.523-2.444 1.129-2.444 2.523c0 1.393 1.094 2.522 2.444 2.522z"></path>
<path d="M11.2 20.993l-2.095-0.875 1.247-3.655c-2.793-1.596-3.791-4.118-3.841-4.273-0.299-0.772 0.050-1.596 0.798-1.905s1.547 0.052 1.846 0.824c0.050 0.103 0.648 1.442 2.195 2.523l0.948-2.677c0.1-0.309 0.050-0.618-0.149-0.875-1.796-2.059-3.891-2.831-6.185-2.111-0.648 0.206-1.097 0.721-1.247 1.39l-1.995 10.708v0.309l0.1 4.891-1.098-0.257c-0.748-0.154-1.546 0.36-1.696 1.133s0.349 1.596 1.097 1.75l2.843 0.618c0.449 0.103 0.848 0 1.197-0.309s0.549-0.721 0.499-1.184l-0.1-5.148 3.642 1.493v4.478c0 0.824 0.648 1.493 1.447 1.493s1.446-0.669 1.446-1.493v-5.457c0.050-0.618-0.349-1.133-0.898-1.39z"></path>
<path d="M15.041 15.382c-4.739-0.36-6.235-3.913-6.285-4.067-0.2-0.515-0.748-0.721-1.247-0.515s-0.698 0.772-0.499 1.287c0.1 0.206 1.995 4.839 7.931 5.303 0.549 0.051 0.998-0.36 0.998-0.927s-0.349-1.030-0.898-1.081zM23.57 8.69c-0.997 0.206-1.746 1.132-1.746 2.213h4.439c0-1.184-0.848-2.111-1.945-2.265-1.497-1.699-3.891-1.030-5.786 0.669 0.1 0.103 0.199 0.257 0.299 0.412 1.347-1.287 3.192-2.162 4.738-1.029zM31.152 20.891h-14.017c-0.399 0-0.748 0.36-0.748 0.772s0.349 0.772 0.748 0.772h0.15v1.287c0 2.008 1.596 3.655 3.541 3.655h6.734c1.945 0 3.541-1.647 3.541-3.655v-1.287h0.15c0.399 0 0.748-0.36 0.748-0.772-0.1-0.463-0.449-0.772-0.848-0.772zM22.223 11.933l0.050-0.463c0-0.155-0.050-0.258-0.2-0.258s-0.249 0.051-0.249 0.206l-0.050 0.463c0 0.154 0.050 0.257 0.2 0.257 0.1 0 0.2-0.103 0.249-0.206zM21.625 12.551l-0.050 0.463c0 0.154 0.050 0.257 0.2 0.257s0.249-0.052 0.249-0.206l0.050-0.463c0-0.154-0.050-0.257-0.2-0.257-0.1 0-0.199 0.103-0.249 0.206zM23.321 12.139c0.15 0 0.249-0.103 0.249-0.257v-0.515c0-0.154-0.1-0.257-0.249-0.257s-0.249 0.103-0.249 0.257v0.515c0 0.103 0.15 0.257 0.249 0.257zM23.021 13.066c0 0.154 0.1 0.257 0.25 0.257s0.249-0.103 0.249-0.257v-0.515c0-0.154-0.1-0.257-0.249-0.257s-0.25 0.103-0.25 0.257v0.515zM24.668 11.161c-0.15 0-0.25 0.103-0.25 0.257v0.515c0 0.155 0.1 0.258 0.25 0.258s0.249-0.103 0.249-0.258v-0.515c0-0.154-0.1-0.257-0.249-0.257zM24.518 12.602v0.515c0 0.155 0.1 0.258 0.249 0.258s0.249-0.103 0.249-0.258v-0.515c0-0.154-0.1-0.257-0.249-0.257-0.2 0-0.299 0.103-0.249 0.257zM25.964 11.161c-0.15 0-0.199 0.154-0.199 0.257l0.050 0.463c0 0.103 0.1 0.206 0.249 0.206s0.249-0.155 0.249-0.309l-0.1-0.412c0-0.154-0.15-0.257-0.249-0.206zM25.915 12.654l0.050 0.463c0 0.103 0.149 0.206 0.249 0.206 0.15 0 0.249-0.154 0.199-0.257v-0.515c0-0.155-0.15-0.206-0.249-0.206-0.15 0.051-0.249 0.154-0.249 0.309z"></path>
</symbol>
<symbol id="icon-bone-score" viewBox="0 0 73 32">
<path d="M72.672 13.749c0.834-1.89 0.379-4.677 0-6.752-0.291-1.746-1.046-3.279-2.132-4.513l0.009 0.010c-1.097-1.28-2.718-1.886-4.247-2.249-1.211-0.315-3.038-0.336-4.247 0-1.209 0.334-1.166 1.335-2.126 2.249-2.382 2.171-5.454 2.327-8.491 2.251h-29.733c-3.040 0.075-6.11-0.078-8.494-2.251-0.955-0.914-0.914-1.915-2.123-2.249-1.209-0.336-3.033-0.315-4.247 0-1.531 0.366-3.152 0.969-4.247 2.249-1.097 1.28-1.829 2.738-2.126 4.503-0.377 2.075-0.832 4.862 0 6.752 0.304 0.681 2.126 1.486 2.126 2.251s-1.822 1.57-2.126 2.251c-0.83 1.893-0.377 4.677 0 6.752 0.297 1.767 1.029 3.221 2.126 4.503 1.097 1.28 2.718 1.881 4.247 2.249 1.211 0.315 3.038 0.336 4.247 0 1.209-0.334 1.166-1.335 2.126-2.249 2.379-2.176 5.451-2.322 8.491-2.251h29.733c3.040-0.071 6.112 0.075 8.494 2.251 0.955 0.914 0.914 1.915 2.123 2.249 1.209 0.336 3.033 0.315 4.247 0 1.531-0.368 3.152-0.967 4.247-2.249 1.097-1.282 1.829-2.736 2.126-4.503 0.377-2.075 0.83-4.859 0-6.752-0.304-0.681-2.126-1.486-2.126-2.251s1.822-1.57 2.126-2.251z"></path>
</symbol>
<symbol id="icon-burger-menu" viewBox="0 0 32 32">
<path d="M32 25.608c0 0.88-0.714 1.592-1.592 1.592h-12.816c-0.879 0-1.592-0.713-1.592-1.592s0.713-1.592 1.592-1.592h12.816c0.88 0 1.592 0.712 1.592 1.592zM32 16c0 0.88-0.714 1.592-1.592 1.592h-28.816c-0.879 0-1.592-0.713-1.592-1.592s0.713-1.592 1.592-1.592h28.816c0.88 0 1.592 0.714 1.592 1.592zM30.408 7.984c0.879 0 1.592-0.713 1.592-1.592s-0.713-1.592-1.592-1.592v0h-19.216c-0.879 0-1.592 0.713-1.592 1.592s0.713 1.592 1.592 1.592v0h19.216z"></path>
</symbol>
<symbol id="icon-close" viewBox="0 0 32 32">
<path stroke-linejoin="miter" stroke-linecap="round" stroke-miterlimit="4" stroke-width="3.5556" d="M1.778 1.778l14.222 14.222 14.222-14.222M1.778 30.222l14.222-14.222 14.222 14.222"></path>
</symbol>
<symbol id="icon-carousel_arrow" viewBox="0 0 34 32">
<path d="M0.586 17.414c-0.362-0.362-0.586-0.862-0.586-1.414s0.224-1.052 0.586-1.414l12.728-12.728c0.366-0.389 0.884-0.631 1.458-0.631 1.105 0 2 0.895 2 2 0 0.575-0.243 1.093-0.631 1.458l-0.001 0.001-11.312 11.314 11.314 11.314c0.377 0.364 0.611 0.874 0.611 1.439 0 1.105-0.895 2-2 2-0.565 0-1.074-0.234-1.438-0.61l-0.001-0.001-12.728-12.728zM34 18h-32v-4h32v4z"></path>
</symbol>
<symbol id="icon-facebook" viewBox="0 0 32 32">
<path d="M31.294 16c0-8.447-6.847-15.294-15.294-15.294s-15.294 6.847-15.294 15.294c0 8.447 6.847 15.294 15.294 15.294v0c8.443-0.008 15.286-6.851 15.294-15.293v-0.001zM17.176 28.883v-9.353h3.529c0.65 0 1.176-0.527 1.176-1.176s-0.527-1.176-1.176-1.176v0h-3.529v-3.529c0-1.3 1.053-2.353 2.353-2.353v0h2.353c0.65 0 1.176-0.527 1.176-1.176s-0.527-1.176-1.176-1.176v0h-2.353c-2.596 0.009-4.697 2.11-4.706 4.705v3.53h-3.529c-0.65 0-1.176 0.527-1.176 1.176s0.527 1.176 1.176 1.176v0h3.529v9.353c-6.623-0.623-11.765-6.155-11.765-12.888 0-7.147 5.794-12.941 12.941-12.941s12.941 5.794 12.941 12.941c0 6.733-5.142 12.265-11.713 12.884l-0.052 0.004z"></path>
</symbol>
<symbol id="icon-grooming" viewBox="0 0 32 32">
<path d="M21.1 9.363c-0.084-0.371-0.315-0.65-0.633-0.765-0.022-0.008-0.046-0.009-0.069-0.016 0.228-1.036 0.87-4.801-1.233-7.004-1.22-1.277-3.122-1.782-5.651-1.503-0.044-0.018-0.095-0.030-0.149-0.032l-0.001-0c-1.986-0.064-3.507 0.484-4.504 1.626-1.953 2.237-1.246 6.013-1.042 6.908-0.030 0.008-0.061 0.010-0.090 0.020-0.318 0.115-0.549 0.394-0.634 0.765-0.076 0.331-0.033 0.713 0.118 1.075 0.278 0.665 0.841 1.090 1.381 1.090 0.058 0 0.115-0.005 0.172-0.015 0.459 1.357 1.223 2.486 2.487 3.179v1.391h-0.656v3.925h7.002v-3.925h-0.657v-1.383c1.266-0.692 2.031-1.824 2.489-3.187 0.056 0.010 0.113 0.014 0.17 0.014 0.54 0 1.103-0.425 1.382-1.089 0.152-0.363 0.193-0.745 0.118-1.075zM7.814 10.219c-0.105-0.251-0.137-0.518-0.088-0.732 0.039-0.169 0.125-0.289 0.236-0.33 0.028-0.010 0.061-0.016 0.095-0.016 0.001 0 0.002 0 0.003 0h-0c0.063 0 0.133 0.018 0.205 0.051 0.074 0.599 0.179 1.18 0.326 1.732-0.247-0.005-0.593-0.269-0.776-0.705zM17.312 16.684c-0.643 0.629-1.84 1.052-3.215 1.052s-2.572-0.424-3.215-1.052h0.693c0.179 0 0.323-0.135 0.323-0.301v-1.392c0.63 0.241 1.362 0.392 2.215 0.432 0.839-0.040 1.56-0.188 2.182-0.425v1.385c0 0.166 0.145 0.301 0.323 0.301h0.693zM19.296 8.874c-0.028 0.266-0.053 0.453-0.080 0.64l0.011-0.092c-0.075 0.51-0.165 0.944-0.278 1.37l0.019-0.086c-0.039 0.153-0.084 0.299-0.13 0.444-0.396 1.263-1.020 2.247-1.983 2.876-0.143 0.093-0.297 0.174-0.454 0.251-0.633 0.312-1.384 0.503-2.289 0.546-0.902-0.043-1.653-0.231-2.287-0.537-0.19-0.090-0.348-0.179-0.5-0.277l0.017 0.010c-0.966-0.63-1.591-1.612-1.988-2.872-0.030-0.082-0.074-0.23-0.115-0.38l-0.015-0.064c-0.093-0.339-0.184-0.772-0.25-1.213l-0.008-0.068c-0.088-0.594-0.157-1.32-0.19-2.055l-0.002-0.049c0.076-0.441 0.187-0.807 0.319-1.107 0.426-0.072 0.806-0.189 1.164-0.347l-0.031 0.012c0.080 0.102 0.215 0.167 0.353 0.158 0.072-0.003 1.024-0.054 2.030-0.421-0.005 0.042-0.002 0.086 0.009 0.129 0.043 0.168 0.203 0.288 0.389 0.292 0.087 0.003 1.797 0.022 2.853-1.101 0.407 0.908 1.322 2.395 3.187 3.328l0.278 0.357c-0.009 0.087-0.020 0.17-0.030 0.255zM20.379 10.219c-0.181 0.435-0.527 0.699-0.773 0.705 0.145-0.552 0.25-1.132 0.324-1.731 0.072-0.033 0.142-0.051 0.205-0.051 0.035 0 0.068 0.005 0.097 0.016 0.153 0.055 0.213 0.23 0.236 0.33 0.049 0.214 0.016 0.481-0.089 0.732zM13.364 11.002v-0.843c0-0.166 0.145-0.301 0.323-0.301s0.323 0.135 0.323 0.301v0.775h0.497c0.179 0 0.323 0.135 0.323 0.301s-0.145 0.301-0.323 0.301h-0.57c-0.316 0-0.573-0.239-0.573-0.533zM11.819 9.069c0 0.323-0.282 0.585-0.629 0.585s-0.629-0.262-0.629-0.585 0.282-0.586 0.629-0.586c0.347 0 0.629 0.262 0.629 0.586zM17.633 9.069c0 0.323-0.281 0.585-0.629 0.585s-0.629-0.262-0.629-0.585 0.282-0.586 0.629-0.586 0.629 0.262 0.629 0.586zM15.679 12.854c0 0.485-0.817 0.658-1.582 0.658s-1.582-0.173-1.582-0.658c0-0.166 0.145-0.301 0.323-0.301 0.144 0 0.266 0.088 0.308 0.209 0.108 0.059 0.448 0.149 0.951 0.149s0.843-0.089 0.951-0.149c0.042-0.121 0.164-0.209 0.308-0.209 0.178 0 0.323 0.135 0.323 0.301zM31.891 22.231c-0.096-0.151-0.237-0.267-0.404-0.329l-0.006-0.002c0.007-0.036 0.010-0.078 0.010-0.121 0-0.139-0.039-0.268-0.107-0.378l0.002 0.003c-0.096-0.151-0.237-0.267-0.404-0.329l-0.006-0.002c0.027-0.165 0-0.339-0.095-0.496s-0.243-0.267-0.409-0.33c0.007-0.037 0.010-0.079 0.010-0.122 0-0.138-0.039-0.268-0.107-0.378l0.002 0.003c-0.113-0.179-0.289-0.31-0.496-0.362l-0.006-0.001c-0.066-0.018-0.142-0.028-0.22-0.028-0.15 0-0.291 0.037-0.415 0.104l0.005-0.002-0.327 0.173c-0.067-0.1-0.148-0.183-0.243-0.25l-0.003-0.002v-0.329h1.831c0.179 0 0.323-0.135 0.323-0.301s-0.145-0.301-0.323-0.301h-1.831v-0.3h1.831c0.179 0 0.323-0.135 0.323-0.301s-0.145-0.3-0.323-0.3h-1.831v-0.301h1.831c0.179 0 0.323-0.135 0.323-0.301s-0.145-0.301-0.323-0.301h-1.831v-0.301h1.831c0.179 0 0.323-0.135 0.323-0.301s-0.145-0.301-0.323-0.301h-1.831l0.002-0.301h1.829c0.179 0 0.323-0.135 0.323-0.301s-0.145-0.301-0.323-0.301h-1.829c-0.363 0-0.648 0.308-0.648 0.702v1.448c-0.028-0.342-0.164-0.685-0.404-0.98-0.59-0.728-1.602-0.947-2.253-0.489-0.339 0.239-0.512 0.615-0.519 1.023-0.424-0.105-0.861-0.054-1.2 0.184-0.327 0.23-0.519 0.603-0.527 1.023-0.006 0.389 0.141 0.789 0.416 1.127s0.648 0.579 1.052 0.68c0.135 0.033 0.27 0.050 0.402 0.050 0.294 0 0.573-0.082 0.799-0.241 0.021-0.015 0.037-0.035 0.057-0.051l1.014 1.131-0.366 0.734c-0.028 0.045-0.053 0.091-0.076 0.139l-2.131 1.124-3.636-5.555c-0.093-0.136-0.196-0.254-0.313-0.358l-0.002-0.002c-0.197-0.234-0.472-0.396-0.785-0.448l-0.008-0.001c-0.196-0.064-0.421-0.1-0.655-0.1-0.115 0-0.228 0.009-0.338 0.026l0.012-0.002v4.029c0.079 0.023 0.152 0.056 0.216 0.1 0.119 0.083 0.206 0.2 0.241 0.338l0.082 0.318 1.508 5.879v-2.518l1.211 1.851c0.385 0.588 1.058 0.914 1.75 0.914 0.343 0 0.69-0.080 1.008-0.248l3.88-2.048c0.016-0.008 0.028-0.020 0.044-0.029 0.030 0.002 0.061 0.006 0.091 0.006 0.252 0 0.508-0.059 0.743-0.183l0.729-0.385 0.044 0.050c0.147 0.164 0.407 0.192 0.591 0.063l0.133-0.094 0.141-0.099 0.133-0.094c0.134-0.094 0.185-0.254 0.148-0.409l0.317-0.168c0.187-0.097 0.327-0.262 0.389-0.461l0.001-0.006c0.019-0.062 0.030-0.133 0.030-0.206 0-0.141-0.040-0.272-0.11-0.383l0.002 0.003zM30.011 20.843l0.059-0.031c0.026-0.014 0.057-0.022 0.091-0.022 0.017 0 0.034 0.002 0.050 0.006l-0.001-0c0.047 0.012 0.086 0.040 0.111 0.079l0 0.001c0.050 0.082 0.019 0.187-0.069 0.233l-0.059 0.031-0.787 0.416c-0.026 0.014-0.058 0.022-0.091 0.022-0.017 0-0.034-0.002-0.050-0.006l0.001 0c-0.047-0.012-0.086-0.041-0.11-0.080l-0-0.001c-0.015-0.024-0.024-0.054-0.024-0.085 0-0.065 0.037-0.121 0.091-0.148l0.001-0 0.787-0.416zM28.973 20.375l0.008-0.016c0.006-0.012 0.008-0.025 0.013-0.037 0.006-0.014 0.010-0.028 0.015-0.043l0.555-0.294c0.026-0.014 0.058-0.022 0.091-0.022 0.017 0 0.034 0.002 0.050 0.006l-0.001-0c0.047 0.012 0.086 0.040 0.111 0.079l0 0.001c0.014 0.023 0.022 0.051 0.022 0.081 0 0.029-0.008 0.056-0.021 0.079l0-0.001c-0.016 0.032-0.040 0.057-0.070 0.074l-0.001 0-0.846 0.447c-0.025 0.013-0.055 0.020-0.086 0.020-0.010 0-0.020-0.001-0.030-0.002l0.001 0 0.187-0.373zM25.273 18.735c-0.156 0.109-0.355 0.082-0.46 0.056-0.216-0.054-0.43-0.195-0.587-0.389s-0.245-0.423-0.241-0.632c0.002-0.101 0.028-0.286 0.184-0.396 0.078-0.055 0.175-0.081 0.279-0.081 0.253 0 0.555 0.152 0.767 0.413 0.299 0.369 0.325 0.839 0.058 1.027zM25.946 17.194c-0.299-0.369-0.325-0.839-0.057-1.027 0.078-0.055 0.174-0.081 0.279-0.081 0.253 0 0.555 0.153 0.767 0.414 0.157 0.193 0.245 0.423 0.242 0.631-0.002 0.101-0.028 0.286-0.184 0.396s-0.355 0.082-0.459 0.056c-0.217-0.054-0.43-0.196-0.587-0.389zM26.778 19.61c-0.147-0.182-0.109-0.44 0.087-0.577s0.473-0.101 0.62 0.081c0.052 0.063 0.073 0.137 0.080 0.21-0.121 0.073-0.223 0.172-0.287 0.299l-0.070 0.141c-0.159 0.026-0.327-0.025-0.43-0.153zM29.319 23.741l-0.296 0.156c-0.413 0.219-0.942 0.083-1.177-0.301l-0.799-1.307c-0.071-0.112-0.113-0.249-0.113-0.396 0-0.076 0.011-0.15 0.033-0.22l-0.001 0.005 0.003-0.007 0.106-0.213 0.79-1.583c0.023-0.045 0.085-0.075 0.162-0.082 0.057-0.005 0.121 0.001 0.187 0.030s0.113 0.071 0.145 0.114c0.007 0.010 0.016 0.019 0.021 0.029 0.027 0.050 0.034 0.1 0.015 0.138l-0.793 1.584c-0.013 0.025-0.015 0.051-0.020 0.078-0.023 0.13 0.042 0.263 0.177 0.322 0.044 0.019 0.090 0.028 0.136 0.028 0.046 0 0.090-0.012 0.132-0.029v1.428c0 0.166 0.145 0.301 0.323 0.301s0.323-0.135 0.323-0.301v-1.042l0.979 1.092-0.333 0.176zM29.91 22.382c-0.026 0.014-0.057 0.022-0.091 0.022-0.017 0-0.034-0.002-0.050-0.006l0.001 0c-0.047-0.012-0.086-0.041-0.11-0.080l-0-0.001c-0.015-0.024-0.024-0.054-0.024-0.085 0-0.065 0.037-0.121 0.091-0.148l0.001-0 0.846-0.447c0.026-0.014 0.057-0.022 0.090-0.022 0.017 0 0.034 0.002 0.050 0.006l-0.001-0c0.047 0.012 0.087 0.041 0.111 0.080 0.050 0.082 0.019 0.187-0.068 0.233l-0.059 0.031-0.787 0.416zM31.347 22.658c-0.014 0.045-0.045 0.081-0.085 0.102l-0.001 0h-0l-0.152 0.080-0.693 0.367c-0.025 0.013-0.055 0.021-0.086 0.021-0.013 0-0.025-0.001-0.037-0.004l0.001 0c-0.054-0.007-0.1-0.038-0.129-0.081l-0-0.001c-0.015-0.024-0.023-0.054-0.023-0.085 0-0.065 0.037-0.121 0.092-0.148l0.001-0 0.846-0.447c0.026-0.014 0.057-0.022 0.090-0.022h0c0.005 0 0.010 0.001 0.015 0.002 0.061 0.003 0.114 0.036 0.145 0.085l0 0.001c0.024 0.040 0.030 0.086 0.017 0.13zM20.551 31.362l-0.18-3.894c-0.001-0.011-0.002-0.022-0.005-0.032l0 0.001-1.761-6.865c-0.008-0.027-0.021-0.051-0.038-0.070l0 0c-0.048-0.057-0.131-0.093-0.225-0.093h-8.492c-0.093 0-0.177 0.037-0.224 0.093-0.017 0.019-0.031 0.043-0.038 0.068l-0 0.001-1.546 6.030-0.24-0.126c-0.051-0.026-0.102-0.047-0.153-0.068l1.52-5.928c0.039-0.141 0.125-0.259 0.24-0.337l0.002-0.001c0.063-0.044 0.137-0.078 0.216-0.1v-4.014c-0.754-0.227-1.614-0.035-2.17 0.554l-6.948 7.366c-0.386 0.409-0.565 0.951-0.493 1.49s0.389 1.025 0.87 1.333l3.986 2.556c0.124 0.080 0.256 0.14 0.391 0.191 0.163 0.174 0.354 0.32 0.565 0.431l0.012 0.006 1.815 0.941c0.003 0.002 0.007 0.002 0.011 0.004l-0.022 0.464-0.020 0.431c-0 0.001-0 0.002-0 0.003 0 0.049 0.021 0.094 0.055 0.125l0 0c0.054 0.049 0.125 0.079 0.204 0.079 0.003 0 0.005-0 0.008-0h12.413c0.002 0 0.005 0 0.008 0 0.079 0 0.15-0.030 0.204-0.079l-0 0c0.034-0.031 0.056-0.075 0.056-0.125 0-0.001 0-0.002-0-0.004v0l-0.020-0.432zM5.103 24.849l2.477-2.626v4.153c-0.065-0.026-0.146-0.051-0.229-0.073l-0.015-0.003c-0.048-0.037-0.089-0.078-0.141-0.111l-2.091-1.341zM9.953 28.41c-0.021 0.032-0.056 0.053-0.097 0.053-0.019 0-0.038-0.005-0.054-0.013l0.001 0-1.469-0.762c-0.082-0.042-0.177-0.039-0.263-0.008-0.080 0.028-0.146 0.080-0.19 0.148l-0.001 0.001c-0.026 0.042-0.041 0.093-0.041 0.147 0 0.029 0.004 0.058 0.013 0.084l-0.001-0.002c0.026 0.079 0.080 0.143 0.152 0.18l0.002 0.001 0.001 0.001 1.759 0.912c0.025 0.013 0.043 0.035 0.051 0.061l0 0.001c0.003 0.009 0.004 0.018 0.004 0.029 0 0.018-0.005 0.035-0.014 0.049l0-0c-0.015 0.024-0.038 0.041-0.065 0.048l-0.001 0c-0.009 0.003-0.020 0.004-0.030 0.004-0.019 0-0.038-0.005-0.054-0.013l0.001 0-1.76-0.913c-0.033-0.017-0.072-0.027-0.113-0.029l-0.001-0c-0.006-0-0.012-0-0.019-0-0.068 0-0.132 0.018-0.186 0.051l0.002-0.001c-0.006 0.003-0.012 0.006-0.018 0.009-0.049 0.028-0.089 0.066-0.119 0.111l-0.001 0.001c-0.026 0.042-0.041 0.093-0.041 0.147 0 0.029 0.004 0.057 0.013 0.084l-0.001-0.002c0.020 0.066 0.067 0.12 0.126 0.159 0.010 0.007 0.017 0.017 0.028 0.022l0.013 0.007 0.015 0.008 1.441 0.747c0.025 0.013 0.044 0.035 0.052 0.061l0 0.001c0.003 0.009 0.004 0.018 0.004 0.028 0 0.018-0.005 0.035-0.014 0.049l0-0c-0.021 0.032-0.057 0.052-0.097 0.052-0.019 0-0.037-0.005-0.053-0.013l0.001 0-1.634-0.846c-0.102-0.053-0.259-0.033-0.359 0.025-0.091 0.052-0.152 0.148-0.152 0.259 0 0.001 0 0.003 0 0.004v-0c0.003 0.058 0.022 0.111 0.054 0.155l-0.001-0.001c0.028 0.041 0.065 0.077 0.112 0.101l1.125 0.583c0.034 0.017 0.047 0.046 0.052 0.061 0.003 0.008 0.004 0.018 0.004 0.028 0 0.018-0.005 0.035-0.014 0.050l0-0c-0.021 0.032-0.056 0.053-0.097 0.053-0.019 0-0.037-0.005-0.053-0.013l0.001 0-1.815-0.941c-0.296-0.153-0.528-0.397-0.663-0.693l-0.004-0.009c-0.175-0.402-0.155-0.841 0.052-1.175 0.253-0.407 0.74-0.707 1.282-0.707 0.22 0 0.448 0.051 0.674 0.162 0.007 0.003 0.013 0.005 0.020 0.008l0.065 0.034 2.33 1.222c0.025 0.013 0.043 0.035 0.052 0.061l0 0.001c0.003 0.009 0.005 0.019 0.005 0.029 0 0.018-0.005 0.035-0.014 0.049l0-0zM17.943 26.919c-0.010 0.528-0.557 0.759-0.837 0.351l-0.281-0.41c-0.081 0.259-0.195 0.485-0.34 0.687l0.005-0.007c0.001 0.032 0.005 0.064 0.005 0.097 0 1.363-1.073 2.468-2.398 2.468s-2.398-1.105-2.398-2.468c0-0.033 0.003-0.064 0.005-0.097-0.14-0.195-0.255-0.42-0.331-0.662l-0.005-0.017-0.281 0.41c-0.279 0.408-0.827 0.177-0.837-0.351-0.004-0.276-0.016-0.539-0.034-0.799l0.003 0.046c-0.061-0.882 1.229-1.295 1.81-1.436 0.517-0.346 1.251-0.501 2.068-0.501s1.551 0.156 2.068 0.501c0.581 0.141 1.871 0.555 1.81 1.436-0.016 0.214-0.027 0.476-0.032 0.741l-0 0.013zM13.114 28.749c0-0.371 0.44-0.672 0.982-0.672s0.983 0.301 0.983 0.672c0 0.371-0.44 0.672-0.983 0.672s-0.982-0.301-0.982-0.672z"></path>
</symbol>
<symbol id="icon-Hero-section-paw-left" viewBox="0 0 32 32">
<path d="M15.079 15.43c1.627 2.224 3.977 1.167 7.237 1.852 4.76 0.916 6.631-1.411 5.756-3.672-0.847-2.169-3.823-2.232-5.278-4.206s-0.676-5.069-2.453-6.533-4.449-0.203-4.929 4.83c-0.292 3.448-1.872 5.478-0.332 7.73zM17.607 21.977c0.688-2.436 2.548-4.139 4.038-3.609s2.213 2.917 1.465 5.473c-0.688 2.436-2.548 4.139-4.038 3.609s-2.126-2.945-1.465-5.473zM9.799 11.105c2.461 0.016 4.392-1.406 4.352-3.101s-2.059-3.058-4.492-2.983c-2.461-0.017-4.392 1.406-4.352 3.1 0.013 1.604 2.031 2.967 4.492 2.983zM9.991 20.149c1.842-1.982 4.363-2.689 5.603-1.495s0.769 3.833-1.073 5.815c-1.842 1.982-4.363 2.689-5.604 1.495-1.151-1.223-0.741-3.742 1.073-5.815zM9.269 18.846c2.361-1.249 3.743-3.469 2.958-5.094-0.757-1.535-3.287-1.812-5.736-0.533-2.36 1.249-3.743 3.468-2.958 5.093 0.758 1.535 3.376 1.783 5.736 0.533z"></path>
</symbol>
<symbol id="icon-Hero-section-paw-right" viewBox="0 0 32 32">
<path d="M15.796 15.168c-1.317-2.135-3.52-1.602-6.443-2.615-4.258-1.456-6.204 0.317-5.609 2.356 0.542 1.995 3.349 2.484 4.361 4.447 1.146 1.905 0.102 4.441 1.627 5.982 1.471 1.497 4.036 0.843 4.991-3.476 0.619-2.893 2.309-4.457 1.073-6.694zM14.395 9.020c-0.857 2.083-2.701 3.164-4.065 2.524s-1.767-2.935-0.856-4.973c0.857-2.083 2.647-3.209 4.065-2.524s1.714 2.89 0.857 4.973zM20.37 19.808c-2.259-0.395-4.148 0.527-4.271 2.018s1.629 2.967 3.875 3.268c2.259 0.396 4.149-0.527 4.271-2.017s-1.629-2.967-3.875-3.268zM21.125 11.763c-1.787 1.437-4.103 1.586-5.202 0.323s-0.488-3.524 1.299-4.961c1.787-1.437 4.103-1.586 5.202-0.323s0.487 3.523-1.299 4.96zM21.84 12.772c-2.249 0.675-3.54 2.407-2.938 3.911s2.865 2.167 5.114 1.492 3.54-2.407 2.938-3.911c-0.603-1.503-2.865-2.167-5.114-1.492z"></path>
</symbol>
<symbol id="icon-Hero-section-paw-top" viewBox="0 0 32 32">
<path d="M15.876 16.010c-2.585 0.573-2.818 3.013-4.86 5.619-2.93 3.812-1.883 6.472 0.314 6.646s3.613-2.507 5.962-2.815c2.293-0.451 4.453 1.577 6.446 0.581 2.022-0.925 2.231-3.857-1.671-6.416-2.617-1.672-3.594-3.943-6.191-3.615zM8.691 15.092c1.694 1.855 2.243 4.274 1.238 5.398-1.074 1.153-3.307 0.582-5.001-1.273s-2.243-4.274-1.238-5.398c1.074-1.153 3.307-0.582 5.001 1.273zM21.661 12.96c-1.103 2.253-0.836 4.617 0.523 5.333s3.379-0.466 4.483-2.719c1.103-2.251 0.836-4.617-0.523-5.333-1.43-0.686-3.451 0.496-4.483 2.718zM13.934 9.537c0.899 2.498 0.301 5.011-1.236 5.563s-3.508-1.065-4.407-3.564-0.301-5.011 1.235-5.563c1.537-0.552 3.509 1.065 4.407 3.564zM15.419 8.981c-0.060 2.521 1.2 4.493 2.739 4.497 1.608-0.025 2.926-2.023 3.014-4.474 0.060-2.521-1.201-4.493-2.739-4.497-1.566-0.073-2.953 1.953-3.013 4.474z"></path>
</symbol>
<symbol id="icon-food" viewBox="0 0 48 32">
<path d="M45.37 13.333c-0.053-1.992-2.005-3.973-5.918-5.333 0.267-0.547 0-0.725 0-1.333 0-2.356-2.048-4.667-4.603-4.667-0.576 0-0.778 0.473-1.315 0.667-0.86-0.969-2.435-1.333-3.945-1.333-0.685 0-1.355-0.231-1.973 0-1.075-0.891-2.414-1.333-3.945-1.333-2.063 0-4.235 1.21-5.26 2.667-2.427-0.265-4.433 0.263-5.261 2-2.033 0.037-3.69 1.537-3.945 3.333-4.239 1.378-6.52 3.252-6.575 5.333l-2.63 10v0.667c0 4.649 10.871 8 24.329 8s23.671-3.352 23.671-8l-2.63-10.667zM13.151 6c-0.035-0.002 0.035 0 0 0h0.657v-0.667c0.521-1.381 2.061-2 3.945-2 0.265 0 0.383-0.041 0.657 0h0.658c0.831-1.345 2.721-2.667 4.603-2.667 1.421 0 2.353 0.473 3.287 1.333l0.658 0.667v-0.667c0.578-0.251 1.308 0 1.973 0 1.377 0 2.617 0.425 3.287 1.333h0.657c0.52-0.227 0.747 0 1.315 0 2.090 0 3.945 1.449 3.945 3.333 0 0.619-0.309 0.805-0.657 1.333-0.001 0.001 0.001 0.665 0 0.667-0.027 0.040 0.027-0.039 0 0v0.667h0.657c1.651 0.228 2.63 1.129 2.63 2 0 0.523-0.317 0.431-0.657 0.667-0.055 0.037 0.048-0.029 0 0l-1.315 0.667 1.315 0.667c0.741 0.345 0.657 0.742 0.657 1.333 0 0.881-1.677 2-3.287 2-0.735 0.251-1.197 0.461-1.973 0.667-3.297 0.868-7.208 1.333-11.178 1.333-6.79 0-12.484-1.499-14.465-2-0.457-0.115-0.645 0.004-0.658 0-1.804 0-3.287-1.716-3.287-3.333s1.483-2.667 3.287-2.667c-0.109-0.011 0.113 0 0 0h0.658v-0.667c-0.212-0.39-0.658-0.907-0.658-1.333-0.001 0.025 0-0.025 0 0 0.169-1.439 1.617-2.667 3.288-2.667zM9.205 9.333c-0.003-0.018 0.003 0.018 0 0-0.004-0.028 0.004 0.028 0 0 0.025 0.147-0.044-0.143 0 0 0.001 0.001 0-0.001 0 0-2.143 0.129-3.945 1.995-3.945 4 0 2.069 2.361 3.971 4.603 4 0.103 0.029 0.305-0.089 0.658 0 2.025 0.512 7.589 2 14.466 2-0.001 0 0.001 0 0 0 4.966 0 9.223-0.663 13.151-2 1.944-0.027 4.603-1.159 4.603-2.667 0-0.185 0.048-0.49 0-0.667-0.143-0.529-0.799-0.962-1.315-1.333 0.512-0.46 0.657-0.755 0.657-1.333 0-0.041 0.003-0.625 0-0.667-0.002-0.035 0.005 0.033 0 0-0.005-0.040 0.008 0.039 0 0-0.007-0.037 0.010 0.037 0 0-0.002-0.009 0.003 0.009 0 0 1.58 0.945 2.631 1.619 2.631 2.667 0 3.18-8.721 6.667-21.041 6.667s-20.383-3.487-20.383-6.667c0-1.647 2.224-2.757 5.917-4zM23.671 31.333c-12.498 0-22.925-3.323-23.013-7.333l2.63-8.667c2.021 3.392 9.915 6 20.383 6 10.467 0 19.020-2.607 21.041-6l2.63 8.667c-0.090 4.011-11.173 7.333-23.671 7.333z"></path>
<path d="M30.904 24c0-1.129-0.88-2-1.973-2-1.057 0-1.92 0.919-1.973 2h-6.575c-0.052-1.081-0.915-2-1.973-2-1.091 0-1.973 0.871-1.973 2 0 0.659 0.189 0.959 0.658 1.333-0.469 0.375-0.657 1.341-0.657 2 0 1.129 0.881 2 1.972 2 1.058 0 1.921-0.919 1.973-2h6.575c0.053 1.081 0.916 2 1.973 2 1.092 0 1.972-0.871 1.972-2 0-0.658-0.19-1.625-0.657-2 0.467-0.375 0.657-0.673 0.657-1.333zM30.247 27.333c0 0.658-0.679 1.333-1.315 1.333-0.635 0-1.315-0.675-1.315-1.333-0.016 0.079 0-0.079 0 0v-0.667h-7.891v0.667c0-0.079 0.015 0.079 0 0 0 0.658-0.679 1.333-1.315 1.333-0.635 0-1.315-0.675-1.315-1.333 0-0.657 0.679-1.333 1.315-1.333v-0.667c-0.635 0-1.315-0.677-1.315-1.333 0-0.658 0.679-1.333 1.315-1.333 0.637 0 1.315 0.675 1.315 1.333 0 0.080 0.015-0.079 0 0v0.667h7.891v-0.667c-0.016-0.080 0 0.079 0 0 0-0.658 0.68-1.333 1.315-1.333 0.637 0 1.315 0.675 1.315 1.333 0 0.657-0.679 1.333-1.315 1.333v0.667c0.637 0 1.315 0.676 1.315 1.333z"></path>
</symbol>
<symbol id="icon-instagram" viewBox="0 0 32 32">
<path stroke-linejoin="round" stroke-linecap="round" stroke-miterlimit="4" stroke-width="2.4706" d="M16 22.275c3.465 0 6.275-2.809 6.275-6.275s-2.809-6.275-6.275-6.275v0c-3.466 0-6.275 2.809-6.275 6.275s2.809 6.275 6.275 6.275v0z"></path>
<path stroke-linejoin="miter" stroke-linecap="butt" stroke-miterlimit="4" stroke-width="2.4706" d="M1.882 22.275v-12.55c0-4.331 3.511-7.843 7.843-7.843v0h12.55c4.331 0 7.843 3.511 7.843 7.843v0 12.55c0 4.331-3.511 7.843-7.843 7.843v0h-12.55c-4.331 0-7.843-3.511-7.843-7.843v0z"></path>
<path stroke-linejoin="round" stroke-linecap="round" stroke-miterlimit="4" stroke-width="2.4706" d="M24.628 7.388l0.016-0.017"></path>
</symbol>
<symbol id="icon-lesstalk-section-paw-left" viewBox="0 0 32 32">
<path d="M16.14 14.95c1.305-1.988 3.522-1.469 6.449-2.393 4.264-1.326 6.235 0.35 5.655 2.253-0.528 1.862-3.344 2.296-4.342 4.124-1.135 1.774-0.064 4.155-1.582 5.585-1.465 1.389-4.047 0.754-5.044-3.295-0.646-2.713-2.358-4.19-1.136-6.274zM17.565 9.247c0.912 1.991 2.8 3.054 4.165 2.477s1.721-2.741 0.756-4.691c-0.912-1.991-2.747-3.096-4.165-2.477s-1.668 2.7-0.756 4.691zM11.732 19.415c2.271-0.398 4.154 0.43 4.256 1.809s-1.676 2.77-3.933 3.079c-2.272 0.397-4.155-0.43-4.256-1.809-0.102-1.378 1.676-2.77 3.933-3.079zM11.111 12.059c1.876 1.427 4.272 1.619 5.38 0.42s0.429-3.397-1.446-4.824c-1.876-1.427-4.272-1.619-5.381-0.42s-0.429 3.397 1.447 4.824zM10.477 12.575c2.245 0.667 3.557 2.298 2.987 3.683s-2.805 1.961-5.050 1.294-3.557-2.298-2.987-3.683c0.571-1.386 2.805-1.962 5.050-1.294z"></path>
</symbol>
<symbol id="icon-lesstalk-section-paw-right" viewBox="0 0 32 32">
<path d="M16.142 15.142c-1.305-1.986-3.663-1.573-6.588-2.497-4.26-1.326-6.004 0.505-5.424 2.406 0.528 1.86 3.48 2.345 4.478 4.171 1.134 1.772-0.293 4.186 1.223 5.615 1.464 1.387 3.968 0.611 4.962-3.433 0.645-2.709 2.57-4.181 1.348-6.262zM14.853 9.606c-0.91 1.988-2.915 3.213-4.279 2.637s-2.127-2.956-1.164-4.902c0.91-1.988 2.862-3.255 4.279-2.637s2.075 2.914 1.164 4.902zM20.45 20.020c-2.269-0.397-3.896 0.15-3.997 1.527s1.36 2.521 3.614 2.83c2.27 0.398 3.897-0.15 3.998-1.527s-1.36-2.52-3.615-2.83zM21.136 12.482c-1.873 1.424-4.496 1.467-5.604 0.269s-0.405-3.413 1.468-4.838c1.873-1.424 4.496-1.467 5.604-0.269 1.107 1.198 0.405 3.413-1.468 4.838zM21.913 12.796c-2.242 0.666-3.986 2.594-3.415 3.978s2.739 1.904 4.981 1.239c2.242-0.666 3.986-2.594 3.415-3.978s-2.739-1.904-4.981-1.239z"></path>
</symbol>
<symbol id="icon-lesstalk-section-paw-top" viewBox="0 0 32 32">
<path d="M14.94 15.81c-2.486 0.476-2.725 2.602-4.686 4.866-2.837 3.304-1.807 5.606 0.34 5.738 2.087 0.166 3.509-2.165 5.725-2.426 2.207-0.399 4.271 1.349 6.261 0.497 1.929-0.82 2.176-3.307-1.618-5.553-2.55-1.487-3.466-3.493-6.022-3.121zM8.986 15.096c1.719 1.476 2.151 3.497 1.087 4.503s-3.402 0.588-5.060-0.92c-1.719-1.476-2.211-3.465-1.086-4.503s3.341-0.555 5.060 0.92zM20.995 13.248c-1.196 1.865-1.002 3.801 0.371 4.357s3.415-0.538 4.515-2.42c1.195-1.865 1.002-3.802-0.372-4.357s-3.414 0.538-4.515 2.42zM13.967 9.961c0.808 2.133 0.172 4.306-1.438 4.877-1.611 0.569-3.623-0.771-4.43-2.905s-0.172-4.306 1.438-4.876c1.611-0.57 3.623 0.771 4.431 2.904zM14.505 9.525c-0.098 2.201 1.115 3.908 2.729 3.874s2.979-1.805 3.077-4.006c0.098-2.201-1.115-3.908-2.729-3.874s-2.979 1.805-3.077 4.006z"></path>
</symbol>
<symbol id="icon-nutrition" viewBox="0 0 32 32">
<path d="M22.415 19.13c-0.748-0.147-1.489 0.341-1.802 1.188-0.055 0.146-0.099 0.317-0.124 0.494l-0.001 0.013c0.78-0.468 1.449-1.023 2.023-1.666l0.007-0.008-0.103-0.020zM23.109 10.927c1.403-1.12 1.801-3.423 0.888-5.144s-2.791-2.208-4.194-1.088c-1.403 1.12-1.801 3.423-0.888 5.144s2.79 2.208 4.193 1.088zM28.673 11.865c-1.311-1.991-3.092-2.014-4.075-1.202s-0.911 2.874-0.090 4.259c0.037 0.076 0.077 0.156 0.116 0.234 0.283-1.053 0.323-1.817 0.323-1.828 0.029-0.893 0.62-1.591 1.345-1.591 0.017 0 0.034 0 0.050 0.001 0.743 0.033 1.324 0.801 1.297 1.712v0.003l-0.001 0.015c-0.022 0.51-0.164 2.343-1.067 4.522-0.083 0.2-0.179 0.419-0.291 0.651 0.129 0.278 0.311 0.726 0.48 1.18l0.057 0.176-1.149-0.227c-0.777 1.277-1.967 2.726-3.737 3.862l5.138 5.216c0.314 0.319 0.695 0.475 1.073 0.475 0.484 0 0.965-0.255 1.298-0.749 0.593-0.879 0.493-2.181-0.223-2.909l-1.236-1.255 0.4 0.079c0.124 0.024 0.246 0.030 0.367 0.022 0.29 0.017 0.631-0.107 1.051-0.287 1.166-0.498 2.488-1.377 2.144-4.055-0.693-3.598-1.482-5.555-3.272-8.306z"></path>
<path d="M26.332 17.841c0.97-2.342 1.033-4.28 1.039-4.402 0.022-0.73-0.442-1.343-1.037-1.37s-1.093 0.541-1.117 1.269c-0.002 0.084-0.092 1.678-0.879 3.474-0.796 1.799-2.226 3.82-5.122 5.003-0.565 0.229-0.873 0.976-0.686 1.67 0.149 0.555 0.571 0.908 1.023 0.908 0.112 0 0.226-0.021 0.338-0.067 3.541-1.421 5.48-4.147 6.441-6.486zM12.134 24.129c0.49 0.114 1.079 0.302 1.235 0.505 0.42 0.543 0.625 1.665 1.169 1.744 0.38 0.055 0.514 0.045 0.985-0.328 0.465-0.369 0.023-1.805-0.088-2.357-0.157-0.783 0.218-1.643 0.224-1.696 0.005-0.043 0.328-0.875 1.263-0.559 0.326 0.111 0.135-0.629-0.376-0.999-0.608-0.439-1.047-0.234-1.492 0.193-0.858-0.805-2.202-0.648-2.966-0.298-0.108 0.52-0.169 1.117-0.169 1.729 0 0.005 0 0.011 0 0.016v-0.001c0.001 0.726 0.079 1.434 0.227 2.116l-0.012-0.066zM14.312 22.392c0.2-0.167 0.472-0.103 0.608 0.141s0.085 0.579-0.115 0.746c-0.2 0.167-0.473 0.104-0.609-0.141s-0.085-0.579 0.116-0.746zM11.538 20.317c-0.199 0.003-0.388-0.004-0.569-0.021-0.051-0.017-0.111-0.028-0.172-0.028-0.009 0-0.018 0-0.026 0.001l0.001-0c-0.004 0-0.008 0.002-0.012 0.002-2.749-0.383-3.497-2.933-6.708-0.287-0.97-0.35-2.126-1.101-3.002-2.705-0.177-0.323-0.533-0.407-0.796-0.19-0.263 0.217-0.333 0.653-0.155 0.976 0.833 1.51 1.863 2.394 2.829 2.913-0.011 0.029-0.023 0.063-0.035 0.097-0.248 0.457-0.442 1.059-0.568 1.861-0.018 0.117-0.804 6.273 0.431 6.273s1.574-4.657 2.264-5.253c0.097 0.011 1.929 2.365 3.494 2.069 0.367-0.070 0.863-0.347 1.277-0.643l0.677 3.324c0.077 0.373 0.348 0.626 0.653 0.626 0.033 0 0.067-0.003 0.101-0.009 0.344-0.063 0.591-0.434 0.573-0.86l-0.176-4.139c-0.15-0.675-0.237-1.45-0.238-2.245v-0.001c0-0.549 0.044-1.144 0.158-1.763zM17.55 28.446h-0.17l-0.347-1.319h-3.889l-0.347 1.319h-0.17c-0.137 0-0.248 0.136-0.248 0.305s0.111 0.304 0.248 0.304h4.923c0.137 0 0.248-0.136 0.248-0.304s-0.111-0.305-0.248-0.305z"></path>
</symbol>
<symbol id="icon-services-arrow" viewBox="0 0 82 32">
<path d="M81.414 17.414c0.781-0.781 0.781-2.047 0-2.828l-12.728-12.728c-0.781-0.781-2.047-0.781-2.828 0s-0.781 2.047 0 2.828l11.314 11.314-11.314 11.314c-0.781 0.781-0.781 2.047 0 2.828s2.047 0.781 2.828 0l12.728-12.728zM0 18h80v-4h-80v4z"></path>
</symbol>
<symbol id="icon-sorting" viewBox="0 0 32 32">
<path d="M11.139 4.861c-0.121-0.121-0.288-0.196-0.472-0.196s-0.351 0.075-0.472 0.196v0l-4.243 4.243c-0.121 0.121-0.196 0.288-0.196 0.472 0 0.369 0.299 0.668 0.667 0.668 0.184 0 0.351-0.075 0.472-0.196v0l3.771-3.772 3.771 3.772c0.121 0.121 0.288 0.195 0.472 0.195 0.369 0 0.668-0.299 0.668-0.668 0-0.184-0.075-0.351-0.196-0.472v0l-4.243-4.243zM10 5.333v21.333h1.333v-21.333h-1.333zM20.861 27.139c0.121 0.121 0.288 0.196 0.472 0.196s0.351-0.075 0.472-0.196v0l4.241-4.243c0.126-0.121 0.204-0.291 0.204-0.48 0-0.368-0.298-0.667-0.667-0.667-0.188 0-0.358 0.078-0.479 0.203l-3.771 3.771-3.771-3.771c-0.121-0.121-0.288-0.196-0.472-0.196-0.368 0-0.667 0.299-0.667 0.667 0 0.184 0.075 0.351 0.195 0.471v0l4.243 4.243zM20.667 5.333v21.333h1.333v-21.333h-1.333z"></path>
</symbol>
<symbol id="icon-Star-score" viewBox="0 0 34 32">
<path d="M17.067 0l3.832 11.793h12.4l-10.032 7.288 3.832 11.793-10.032-7.288-10.032 7.288 3.832-11.793-10.032-7.288h12.4l3.832-11.793z"></path>
</symbol>
<symbol id="icon-training" viewBox="0 0 32 32">
<path d="M6.231 25.595l1.153-3.878-0.419-1.143c-0.891-0.149-1.626-0.597-2.098-1.193l-1.573 5.22-3.093 5.221c-0.42 0.696-0.157 1.591 0.577 1.989s1.678 0.149 2.098-0.547l3.251-5.37c0.052-0.099 0.105-0.199 0.105-0.298zM1.090 14.764c0.483 0.253 1.127 0.051 1.395-0.456l2.413-4.658 0.429-0.303 0.215-1.266c0.107-0.658 0.429-1.266 0.858-1.772l-2.896 1.772c-0.161 0.101-0.268 0.253-0.376 0.405l-2.521 4.911c-0.268 0.506-0.053 1.114 0.483 1.367zM10.338 5.408c1.632 0 2.954-1.211 2.954-2.704s-1.323-2.704-2.954-2.704-2.954 1.211-2.954 2.704c0 1.493 1.322 2.704 2.954 2.704zM28.969 25.591s0.052 0.050 0.052 0.099c0.418-0.249 0.575-0.797 0.575-0.797 1.569 0.448 1.883-0.947 1.883-0.947 0.209-0.398-0.837-0.797-0.837-0.797-0.052-0.996-1.255-1.295-1.255-1.295-0.575-0.498-0.418 0-0.418 0-0.575-0.050-0.942 0.15-0.942 0.15-0.942-0.847-1.517 0.448-1.517 0.448-0.157 0-0.262 0.050-0.419 0.050 0.942 1.195 1.935 2.241 2.877 3.088zM30.429 28.782c-0.272-0.252-2.228-1.362-2.228-1.362 0.435-0.202 0.489-1.059 0.489-1.362-1.032-0.908-2.119-2.068-3.205-3.379-0.543 0.101-4.129 1.513-7.606 0.051-1.304-0.555-2.445 0.252-2.445 0.252-0.978 1.059-0.543 2.774-0.543 2.774l1.358-1.362c0.706-0.504 0.978-0.403 1.141-0.151 0.109 0.202 0.054 0.454-0.109 0.656-1.304 1.261-0.869 2.572-0.869 2.572l-1.847 1.513c-0.706 0.706 0.109 1.261 0.109 1.261 0.163-0.555 1.467-1.412 1.467-1.412-0.054 0.656 0.272 0.807 0.272 0.807 0.923-0.252 0.706-1.109 0.706-1.109 1.467-0.050 1.63-0.656 1.63-0.656 1.467 0.252 2.173-0.655 2.173-0.655 0.38 0.655 3.694 1.362 3.694 1.362 0.217 0.101 1.467 2.421 1.467 2.421 0.272 0.050 0.543 0.403 0.543 0.403 0.598 0.353 1.847-0.050 1.847-0.050-0.109-0.454-0.761-0.454-0.761-0.454-1.467 0-1.249-2.269-1.249-2.269 0.054-0.303 1.195 0.252 1.195 0.252l2.499 0.858c1.249 0.605 1.793-0.101 1.793-0.101 0.38-0.555-1.521-0.857-1.521-0.857zM18.215 11.014c1.241 2.511 3.885 7.484 7.283 11.522 0.162-0.049 0.378-0.049 0.593-0.099-0.053-0.049-0.108-0.098-0.162-0.197-3.399-3.988-6.042-8.961-7.229-11.423-0.216 0.148-0.432 0.197-0.486 0.197z"></path>
<path d="M18.48 10.433c0.543-0.199 0.869-0.748 0.652-1.247s-0.815-0.798-1.357-0.599l-2.932 0.948c-3.421-2.943-3.583-3.443-4.941-3.642-1.738-0.25-3.367 0.898-3.638 2.495l-1.303 8.382c-0.271 1.597 0.978 3.093 2.715 3.343h0.163l1.412 3.892-2.878 3.892c-0.489 0.649-0.326 1.597 0.434 2.046 0.706 0.449 1.738 0.299 2.226-0.399l3.367-4.49c0.271-0.399 0.38-0.848 0.217-1.297l-1.792-4.939c0.272-0.349 0.489-0.798 0.543-1.247l1.194-7.434 1.357 1.197c0.187 0.167 0.435 0.269 0.707 0.269 0.136 0 0.266-0.026 0.386-0.072l-0.007 0.002 3.475-1.098z"></path>
</symbol>
<symbol id="icon-Video-button" viewBox="0 0 32 32">
<path d="M22.809 15.271c-0.019 0.197-0.139 0.412-0.414 0.631l-8.11 6.435c-0.577 0.458-1.947 0.565-1.947-0.513v-11.905c0-0.975 1.47-1.215 2.059-0.818l8.109 5.472c0.309 0.209 0.377 0.459 0.303 0.7zM32 18.654c-0.857 20.541-35.471 16.285-31.715-5.338 1.576-9.073 9.11-13.845 17.389-13.269 9.317 0.647 14.157 9.123 14.327 18.471 0 0.023-0.015 0.043-0.018 0.065 0.003 0.026 0.020 0.042 0.019 0.071zM30.263 18.919c-0.14-6.617-2.487-13.763-8.541-16.607-8.025-3.769-17.479 0.676-19.518 9.838-1.823 8.194 2.232 15.459 9.653 18.087 7.912 2.802 17.974-1.607 18.407-11.317z"></path>
</symbol>
<symbol id="icon-basket" viewBox="0 0 32 32">
<path d="M1.504 12.4h29v-2.134h-29v2.134zM29.87 11.766v0.936h2.134v-0.936h-2.134zM26.427 29.466h-20.847v2.134h20.848v-2.134zM2.137 12.704v-0.937h-2.133v0.936h2.132zM6.182 29.838c-2.55-4.992-4.045-10.889-4.045-17.134v0h-2.133c0 6.28 1.461 12.474 4.27 18.090l1.907-0.956zM5.58 29.467c0.256 0 0.489 0.146 0.602 0.371l-1.907 0.956c0.246 0.481 0.738 0.805 1.306 0.806h0v-2.134zM25.826 29.838c0.113-0.222 0.339-0.371 0.601-0.371 0 0 0 0 0.001 0h-0v2.133c0.554 0 1.058-0.312 1.306-0.806l-1.907-0.956zM29.87 12.704c-0.001 6.246-1.495 12.142-4.145 17.352l0.101-0.218 1.907 0.956c2.693-5.27 4.271-11.496 4.271-18.090v-0h-2.134zM30.504 12.4c-0.35 0-0.633-0.283-0.634-0.633v-0h2.134c0-0 0-0.001 0-0.001 0-0.828-0.671-1.499-1.499-1.499-0 0-0.001 0-0.001 0h0v2.133zM1.504 10.267c-0.828 0-1.5 0.672-1.5 1.5v0h2.132c0 0.35-0.284 0.634-0.634 0.634v0-2.134zM8.386 11.882l6.4-10.666-1.832-1.097-6.4 10.666 1.832 1.096zM17.222 1.215l6.4 10.666 1.83-1.096-6.4-10.667-1.83 1.096zM10.67 20.934h10.666v-2.134h-10.666v2.134z"></path>
</symbol>
<symbol id="icon-your_name" viewBox="0 0 32 32">
<path d="M11.384 9.714c0-1.125 0.446-2.204 1.24-3s1.871-1.243 2.995-1.243c1.123 0 2.2 0.447 2.995 1.243s1.241 1.875 1.241 3c0 1.125-0.446 2.204-1.241 3s-1.872 1.243-2.995 1.243c-1.123 0-2.2-0.447-2.995-1.243s-1.241-1.875-1.241-3zM15.619 3.048c-1.765 0-3.458 0.702-4.706 1.953s-1.949 2.946-1.949 4.714 0.701 3.464 1.949 4.714c1.248 1.25 2.941 1.953 4.706 1.953s3.458-0.702 4.706-1.953c1.248-1.25 1.949-2.946 1.949-4.714s-0.701-3.464-1.949-4.714c-1.248-1.25-2.941-1.953-4.706-1.953zM5.333 22.442c0-0.964 0.382-1.889 1.063-2.571s1.604-1.065 2.567-1.065h13.311c0.963 0 1.886 0.383 2.567 1.065s1.063 1.607 1.063 2.571v0.274c-0.002 0.113-0.010 0.226-0.024 0.338-0.024 0.21-0.069 0.494-0.157 0.831-0.233 0.889-0.644 1.721-1.209 2.445-1.416 1.821-4.079 3.384-8.895 3.384s-7.478-1.564-8.895-3.384c-0.565-0.724-0.977-1.556-1.21-2.445-0.092-0.357-0.152-0.721-0.177-1.088-0.001-0.027-0.002-0.054-0.002-0.081v-0.028l-0.001-0.010v-0.236zM7.754 22.657v0.015c0.017 0.204 0.051 0.406 0.103 0.604 0.109 0.422 0.33 0.991 0.776 1.565 0.853 1.096 2.728 2.45 6.987 2.45s6.135-1.354 6.987-2.448c0.362-0.464 0.625-0.997 0.774-1.566 0.052-0.198 0.087-0.4 0.104-0.604l0.001-0.015v-0.216c0-0.321-0.127-0.63-0.354-0.857s-0.535-0.355-0.856-0.355h-13.312c-0.321 0-0.629 0.128-0.856 0.355s-0.354 0.536-0.354 0.857v0.216z"></path>
</symbol>
<symbol id="icon-email" viewBox="0 0 32 32">
<path d="M16 29.333c-1.822 0-3.544-0.35-5.167-1.051s-3.039-1.655-4.249-2.867c-1.212-1.211-2.167-2.627-2.867-4.249s-1.051-3.344-1.051-5.167c0-1.845 0.35-3.572 1.051-5.183s1.655-3.023 2.867-4.233c1.211-1.212 2.627-2.168 4.249-2.868s3.344-1.049 5.167-1.049c1.844 0 3.572 0.35 5.183 1.049 1.612 0.7 3.023 1.656 4.233 2.868s2.167 2.622 2.867 4.233c0.701 1.611 1.051 3.338 1.051 5.183v1.933c0 1.311-0.45 2.428-1.349 3.349-0.901 0.923-2.006 1.384-3.317 1.384-0.8 0-1.544-0.178-2.233-0.533s-1.256-0.822-1.7-1.4c-0.6 0.6-1.305 1.073-2.116 1.417s-1.684 0.516-2.617 0.516c-1.845 0-3.416-0.65-4.716-1.951s-1.951-2.872-1.951-4.716c0-1.845 0.65-3.417 1.951-4.717s2.872-1.949 4.716-1.949c1.844 0 3.417 0.65 4.717 1.949s1.949 2.873 1.949 4.717v1.933c0 0.645 0.2 1.15 0.6 1.516s0.867 0.551 1.4 0.551c0.533 0 1-0.184 1.4-0.551s0.6-0.872 0.6-1.516v-1.933c0-2.911-1.050-5.417-3.151-7.517s-4.605-3.149-7.516-3.149c-2.911 0-5.417 1.050-7.517 3.149s-3.149 4.606-3.149 7.517 1.050 5.416 3.149 7.516c2.1 2.1 4.606 3.151 7.517 3.151h6.667v2.667h-6.667zM16 20c1.111 0 2.055-0.389 2.833-1.167s1.167-1.722 1.167-2.833c0-1.111-0.389-2.056-1.167-2.833s-1.722-1.167-2.833-1.167c-1.111 0-2.056 0.389-2.833 1.167s-1.167 1.722-1.167 2.833 0.389 2.055 1.167 2.833c0.778 0.778 1.722 1.167 2.833 1.167z"></path>
</symbol>
<symbol id="icon-pet_name" viewBox="0 0 32 32">
<path d="M6.467 29.333v-12.8l-0.367-0.367c-0.244-0.244-0.433-0.533-0.567-0.867s-0.2-0.678-0.2-1.033c0-0.355 0.067-0.694 0.2-1.016s0.322-0.606 0.567-0.851l4.367-4.4h5.333l5.333-5.333 2.733 2.733c0.889 0.889 1.578 1.894 2.067 3.016s0.733 2.317 0.733 3.584c0 1.267-0.244 2.461-0.733 3.584s-1.178 2.127-2.067 3.016l-2.733 2.733v8h-14.667zM9.133 26.667h9.333v-6.433l3.5-3.5c0.645-0.644 1.145-1.367 1.5-2.167s0.533-1.655 0.533-2.567c0-0.889-0.183-1.733-0.551-2.533s-0.86-1.522-1.483-2.167l-0.833-0.867-4.233 4.233h-5.333l-0.767 0.767 2.233 2.233c0.622 0.622 1.106 1.339 1.451 2.149s0.516 1.662 0.516 2.551c0 0.889-0.167 1.739-0.5 2.551s-0.822 1.538-1.467 2.183l-3.9-3.9v7.467z"></path>
</symbol>
<symbol id="icon-phone" viewBox="0 0 32 32">
<path d="M27.833 29.333c-3.467 0-6.728-0.655-9.783-1.967s-5.723-3.105-8-5.383c-2.278-2.278-4.078-4.945-5.4-8s-1.984-6.328-1.984-9.817c-0.022-0.4 0.111-0.75 0.4-1.051s0.644-0.449 1.067-0.449h5.2c0.4 0 0.744 0.15 1.033 0.449s0.433 0.662 0.433 1.084c0 0.978 0.067 1.9 0.2 2.767s0.345 1.689 0.633 2.467c0.111 0.244 0.133 0.494 0.067 0.749s-0.2 0.495-0.4 0.717l-3.333 3.333c0.956 1.956 2.311 3.811 4.067 5.567s3.644 3.155 5.667 4.2l3.333-3.333c0.2-0.2 0.433-0.333 0.7-0.4s0.533-0.044 0.8 0.067c0.822 0.267 1.672 0.472 2.549 0.616s1.784 0.217 2.717 0.217c0.422 0 0.784 0.156 1.084 0.467s0.449 0.689 0.449 1.133v5.1c0 0.4-0.145 0.744-0.433 1.033s-0.644 0.433-1.067 0.433zM20.167 25.333c1 0.378 2.044 0.678 3.133 0.9s2.211 0.367 3.367 0.433v-2.867c-0.689-0.044-1.394-0.122-2.116-0.233s-1.44-0.278-2.151-0.5l-2.233 2.267zM26.667 16c0-2.978-1.033-5.5-3.1-7.567s-4.589-3.1-7.567-3.1v-2.667c1.845 0 3.578 0.35 5.2 1.049s3.033 1.651 4.233 2.851 2.15 2.611 2.849 4.233c0.7 1.622 1.051 3.355 1.051 5.2h-2.667zM21.333 16c0-1.467-0.522-2.722-1.567-3.767s-2.3-1.567-3.767-1.567v-2.667c2.222 0 4.111 0.778 5.667 2.333s2.333 3.444 2.333 5.667h-2.667zM6.667 11.767l2.2-2.233c-0.178-0.644-0.328-1.322-0.451-2.033s-0.205-1.433-0.249-2.167h-2.8c0.044 1.067 0.178 2.133 0.4 3.2s0.522 2.145 0.9 3.233z"></path>
</symbol>
</defs>
</svg>
